# xmcd CD database file
#
# Track frame offsets:
#	150
#	5346
#	12064
#	19117
#	29547
#	34551
#	44788
#	51690
#	58408
#	66527
#	76012
#	84642
#	92068
#	103518
#	116395
#	128569
#	140910
#	149976
#	158656
#	168705
#	178536
#	184705
#	196489
#	203439
#	211747
#	220014
#	225679
#	232735
#	240647
#	247235
#	256572
#	264250
#	272207
#	279125
#	290710
#	294937
#
# Disc length: 4017 seconds
#
# Revision: 0
# Processed by: cddbd v1.4PL0 Copyright (c) Steve Scherf et al.
# Submitted via: CDex 1.40Release
#
DISCID=0d0faf24
DTITLE=Various Artist - Boogie Woogie Country Sing Along Vol 2
DYEAR=1999
DGENRE=Country
TTITLE0=My Maria
TTITLE1=My Baby Loves Me
TTITLE2=Kiss An Angel Good Morning
TTITLE3=My Friend The Wind
TTITLE4=Is The Magic Still There?
TTITLE5=Bitterblue
TTITLE6=How Do I Live?
TTITLE7=Only The Lonely
TTITLE8=Livin' On Love
TTITLE9=You Want Love (Maria, Maria)
TTITLE10=Hearts On Fire
TTITLE11=When You Walk In The Room
TTITLE12=I Have A Dream
TTITLE13=Making Believe
TTITLE14=Distant Drums
TTITLE15=I Need You
TTITLE16=Coal Miner's Daughter
TTITLE17=Bluest Heartache Of The Year
TTITLE18=You're My Best Friend
TTITLE19=Crystal Chandelier
TTITLE20=Adios Amigo
TTITLE21=Are You Lonesome Tonight?
TTITLE22=Patches
TTITLE23=Medals For Mothers
TTITLE24=She's A Woman
TTITLE25=Love And Roses
TTITLE26=Georgie
TTITLE27=Mammy Blue
TTITLE28=Tequila Sheila
TTITLE29=Cucurucucu
TTITLE30=You Ask Me
TTITLE31=The Gambler
TTITLE32=Seasons In The Sun
TTITLE33=Stand By Your Man
TTITLE34=Little Soldier Blue
TTITLE35=Kentucky Blue
EXTD=YEAR: 1999 ID3G: 2
EXTT0=
EXTT1=
EXTT2=
EXTT3=
EXTT4=
EXTT5=
EXTT6=
EXTT7=
EXTT8=
EXTT9=
EXTT10=
EXTT11=
EXTT12=
EXTT13=
EXTT14=
EXTT15=
EXTT16=
EXTT17=
EXTT18=
EXTT19=
EXTT20=
EXTT21=
EXTT22=
EXTT23=
EXTT24=
EXTT25=
EXTT26=
EXTT27=
EXTT28=
EXTT29=
EXTT30=
EXTT31=
EXTT32=
EXTT33=
EXTT34=
EXTT35=
PLAYORDER=
